<svg id="Layer_1" data-name="Layer 1" xmlns="http://www.w3.org/2000/svg" viewBox="0 0 1200 1200"><defs><style>.cls-1{fill:#ffd737;}.cls-2{fill:#fff;}</style></defs><circle class="cls-1" cx="600" cy="600" r="600"/><path class="cls-2" d="M600,290.29c100.87,0,112.82.39,152.65,2.2,36.84,1.68,56.84,7.84,70.15,13,17.64,6.85,30.22,15,43.44,28.26s21.41,25.8,28.26,43.44c5.17,13.31,11.33,33.31,13,70.14,1.81,39.84,2.2,51.79,2.2,152.66s-.39,112.82-2.2,152.65c-1.68,36.84-7.84,56.84-13,70.15-6.85,17.64-15,30.22-28.26,43.44s-25.8,21.41-43.44,28.26c-13.31,5.17-33.31,11.33-70.15,13-39.83,1.81-51.77,2.2-152.65,2.2s-112.83-.39-152.65-2.2c-36.84-1.68-56.84-7.84-70.15-13-17.64-6.85-30.22-15-43.44-28.26s-21.41-25.8-28.26-43.44c-5.17-13.31-11.33-33.31-13-70.14-1.81-39.84-2.2-51.79-2.2-152.66s.39-112.82,2.2-152.65c1.68-36.84,7.84-56.84,13-70.15,6.85-17.64,15-30.22,28.26-43.44s25.8-21.41,43.44-28.26c13.31-5.17,33.31-11.33,70.14-13,39.84-1.81,51.79-2.2,152.66-2.2m0-68.07c-102.6,0-115.46.44-155.76,2.28s-67.67,8.22-91.7,17.56c-24.84,9.65-45.91,22.57-66.91,43.57s-33.92,42.07-43.58,66.91c-9.33,24-15.72,51.49-17.56,91.7S222.22,497.4,222.22,600s.44,115.46,2.27,155.76,8.23,67.67,17.56,91.7c9.66,24.84,22.58,45.91,43.58,66.91s42.07,33.92,66.91,43.57c24,9.34,51.49,15.73,91.7,17.56s53.16,2.28,155.76,2.28,115.46-.44,155.76-2.28,67.67-8.22,91.7-17.56c24.84-9.65,45.91-22.57,66.91-43.57s33.92-42.07,43.57-66.91c9.34-24,15.73-51.49,17.56-91.7s2.28-53.16,2.28-155.76-.44-115.46-2.28-155.76-8.22-67.67-17.56-91.7c-9.65-24.84-22.57-45.91-43.57-66.91s-42.07-33.92-66.91-43.57c-24-9.34-51.49-15.73-91.7-17.56S702.6,222.22,600,222.22Z"/><path class="cls-2" d="M600,406c-107.14,0-194,86.85-194,194s86.85,194,194,194,194-86.85,194-194S707.14,406,600,406Zm0,319.92A125.93,125.93,0,1,1,725.93,600,125.93,125.93,0,0,1,600,725.93Z"/><circle class="cls-2" cx="801.66" cy="398.34" r="45.33"/></svg>