<svg id="Layer_1" data-name="Layer 1" xmlns="http://www.w3.org/2000/svg" viewBox="0 0 1200 1200"><defs><style>.cls-1{fill:#ffd737;}.cls-2{fill:#fff;}</style></defs><circle class="cls-1" cx="600" cy="600" r="600"/><path class="cls-2" d="M297.92,325.38c-45.74,0-82.39,38.6-82.39,84.39V789.94c0,45.79,36.66,84.68,82.39,84.68H902.08c45.74,0,82.39-38.89,82.39-84.68V409.77c0-45.79-36.66-84.39-82.39-84.39Zm4,54.93H898.37L616.31,648.07c-10.26,9.74-21.75,9.75-32,0Zm-31.47,45.77L457.54,603.44,270.45,790Zm659.09,0V790L743,603.15,929.54,426.08Zm-226,214.84,178.21,178.8H318.51l178.8-178.5,49.21,46.62c29.82,28.27,77.74,28.31,107.56,0Z"/></svg>